<svg width="20" height="20" viewBox="0 0 20 20" fill="none" xmlns="http://www.w3.org/2000/svg">
<g id="Iconly/Bold/Chat">
<g id="Chat">
<path id="Chat_2" fill-rule="evenodd" clip-rule="evenodd" d="M1.66663 10.0125C1.66663 5.62259 5.17496 1.66666 10.0166 1.66666C14.75 1.66666 18.3333 5.54748 18.3333 9.98747C18.3333 15.1369 14.1333 18.3333 9.99996 18.3333C8.63329 18.3333 7.11663 17.9661 5.89996 17.2484C5.47496 16.9896 5.11663 16.7977 4.65829 16.9479L2.97496 17.4487C2.54996 17.5822 2.16663 17.2484 2.29163 16.7977L2.84996 14.9282C2.94163 14.6695 2.92496 14.3941 2.79163 14.1771C2.07496 12.8584 1.66663 11.4146 1.66663 10.0125ZM8.91663 10.0125C8.91663 10.6051 9.39163 11.0808 9.9833 11.0891C10.575 11.0891 11.05 10.6051 11.05 10.0209C11.05 9.4283 10.575 8.95259 9.9833 8.95259C9.39997 8.94424 8.91663 9.4283 8.91663 10.0125ZM12.7583 10.0209C12.7583 10.6051 13.2333 11.0891 13.825 11.0891C14.4166 11.0891 14.8916 10.6051 14.8916 10.0209C14.8916 9.4283 14.4166 8.95259 13.825 8.95259C13.2333 8.95259 12.7583 9.4283 12.7583 10.0209ZM6.14163 11.0891C5.5583 11.0891 5.07496 10.6051 5.07496 10.0209C5.07496 9.4283 5.54996 8.95259 6.14163 8.95259C6.7333 8.95259 7.2083 9.4283 7.2083 10.0209C7.2083 10.6051 6.7333 11.0808 6.14163 11.0891Z" fill="white"/>
</g>
</g>
</svg>
