<svg width="12" height="14" viewBox="0 0 12 14" fill="none" xmlns="http://www.w3.org/2000/svg">
<path fill-rule="evenodd" clip-rule="evenodd" d="M0 5.82243C0 2.60252 2.71333 0 5.99537 0C9.28667 0 12 2.60252 12 5.82243C12 7.44498 11.4049 8.95134 10.4255 10.2281C9.34504 11.6365 8.01329 12.8635 6.51427 13.8267C6.17118 14.0493 5.86156 14.0661 5.48502 13.8267C3.97746 12.8635 2.64571 11.6365 1.57447 10.2281C0.594341 8.95134 0 7.44498 0 5.82243ZM4.01966 6.00367C4.01966 7.08234 4.90726 7.93072 5.99558 7.93072C7.08461 7.93072 7.98075 7.08234 7.98075 6.00367C7.98075 4.93341 7.08461 4.04373 5.99558 4.04373C4.90726 4.04373 4.01966 4.93341 4.01966 6.00367Z" fill="#FF4C26"/>
</svg>
