<svg width="19" height="9" viewBox="0 0 19 9" fill="none" xmlns="http://www.w3.org/2000/svg">
<path d="M0.267526 1.28C-0.0324742 0.99 -0.0324744 0.52 0.257526 0.22C0.407526 0.07 0.597526 0 0.797526 0C0.987526 0 1.17753 0.07 1.31753 0.22L4.80753 3.69C4.94753 3.83 5.02753 4.02 5.02753 4.22C5.02753 4.42 4.94753 4.61 4.80753 4.75L1.31753 8.22C1.02753 8.52 0.557526 8.52 0.257526 8.22C-0.0324744 7.93 -0.0324742 7.45 0.267526 7.16L3.21753 4.22L0.267526 1.28Z" fill="#FF4C26" fill-opacity="0.3"/>
<path d="M7.25385 1.28C6.95385 0.99 6.95385 0.52 7.24385 0.22C7.39385 0.07 7.58385 0 7.78385 0C7.97385 0 8.16385 0.07 8.30385 0.22L11.7939 3.69C11.9339 3.83 12.0139 4.02 12.0139 4.22C12.0139 4.42 11.9339 4.61 11.7939 4.75L8.30385 8.22C8.01385 8.52 7.54385 8.52 7.24385 8.22C6.95385 7.93 6.95385 7.45 7.25385 7.16L10.2039 4.22L7.25385 1.28Z" fill="#FF4C26" fill-opacity="0.65"/>
<path d="M14.2399 1.28C13.9399 0.99 13.9399 0.52 14.2299 0.22C14.3799 0.07 14.5699 0 14.7699 0C14.9599 0 15.1499 0.07 15.2899 0.22L18.7799 3.69C18.9199 3.83 18.9999 4.02 18.9999 4.22C18.9999 4.42 18.9199 4.61 18.7799 4.75L15.2899 8.22C14.9999 8.52 14.5299 8.52 14.2299 8.22C13.9399 7.93 13.9399 7.45 14.2399 7.16L17.1899 4.22L14.2399 1.28Z" fill="#FF4C26"/>
</svg>
