<svg width="12" height="9" viewBox="0 0 12 9" fill="none" xmlns="http://www.w3.org/2000/svg">
<path d="M0.226784 1.28293C-0.0739028 0.992266 -0.073903 0.52119 0.216761 0.220504C0.367104 0.0701602 0.55754 0 0.757997 0C0.948432 0 1.13887 0.0701602 1.27919 0.220504L4.77718 3.69845C4.9175 3.83877 4.99768 4.0292 4.99768 4.22966C4.99768 4.43012 4.9175 4.62055 4.77718 4.76087L1.27919 8.23882C0.988524 8.5395 0.517448 8.5395 0.216761 8.23882C-0.073903 7.94815 -0.0739028 7.46705 0.226784 7.17639L3.18354 4.22966L0.226784 1.28293Z" fill="#FF4C26" fill-opacity="0.65"/>
<path d="M7.2291 1.28293C6.92842 0.992266 6.92842 0.52119 7.21908 0.220504C7.36942 0.0701602 7.55986 0 7.76032 0C7.95075 0 8.14119 0.0701602 8.28151 0.220504L11.7795 3.69845C11.9198 3.83877 12 4.0292 12 4.22966C12 4.43012 11.9198 4.62055 11.7795 4.76087L8.28151 8.23882C7.99084 8.5395 7.51977 8.5395 7.21908 8.23882C6.92842 7.94815 6.92842 7.46705 7.2291 7.17639L10.1859 4.22966L7.2291 1.28293Z" fill="#FF4C26"/>
</svg>
